<?xml version="1.0" encoding="UTF-8" standalone="no"?>
<!-- Created with Inkscape (http://www.inkscape.org/) -->

<svg
   version="1.1"
   id="svg1"
   width="24"
   height="24"
   viewBox="0 0 24 24"
   sodipodi:docname="tac-writer.svg"
   xml:space="preserve"
   inkscape:version="1.4.2 (ebf0e940d0, 2025-05-08)"
   inkscape:export-filename="../tac-writer.png"
   inkscape:export-xdpi="960"
   inkscape:export-ydpi="960"
   xmlns:inkscape="http://www.inkscape.org/namespaces/inkscape"
   xmlns:sodipodi="http://sodipodi.sourceforge.net/DTD/sodipodi-0.dtd"
   xmlns="http://www.w3.org/2000/svg"
   xmlns:svg="http://www.w3.org/2000/svg"><defs
     id="defs1"><linearGradient
       x1="22.1875"
       y1="23.0625"
       x2="5.318624"
       y2="5.3239861"
       gradientUnits="userSpaceOnUse"
       gradientTransform="scale(0.75)"
       spreadMethod="pad"
       id="linearGradient3"><stop
         style="stop-opacity:1;stop-color:#333333"
         offset="0"
         id="stop1" /><stop
         style="stop-opacity:1;stop-color:#1a1a1a"
         offset="0.997054"
         id="stop2" /><stop
         style="stop-opacity:1;stop-color:#66ff00"
         offset="1"
         id="stop3" /></linearGradient><clipPath
       id="cdb8861e55"><path
         d="M 3.230469 9 L 215 9 L 215 214 L 3.230469 214 Z M 3.230469 9 "
         clip-rule="nonzero"
         id="path1" /></clipPath></defs><sodipodi:namedview
     id="namedview1"
     pagecolor="#ffffff"
     bordercolor="#000000"
     borderopacity="0.25"
     inkscape:showpageshadow="2"
     inkscape:pageopacity="0.0"
     inkscape:pagecheckerboard="0"
     inkscape:deskcolor="#d1d1d1"
     inkscape:zoom="5.7484473"
     inkscape:cx="-32.704483"
     inkscape:cy="3.3922203"
     inkscape:window-width="1920"
     inkscape:window-height="1005"
     inkscape:window-x="0"
     inkscape:window-y="0"
     inkscape:window-maximized="1"
     inkscape:current-layer="g1"><inkscape:page
       x="0"
       y="0"
       inkscape:label="1"
       id="page1"
       width="24"
       height="24"
       margin="0"
       bleed="0" /></sodipodi:namedview><g
     id="g1"
     inkscape:groupmode="layer"
     inkscape:label="1"><path
       id="path3"
       d="m 5.699,0.75 h 6.602 c 2.742,0 4.949,2.207 4.949,4.949 v 6.602 c 0,2.742 -2.207,4.949 -4.949,4.949 H 5.699 C 2.957,17.25 0.75,15.043 0.75,12.301 V 5.699 C 0.75,2.957 2.957,0.75 5.699,0.75 Z"
       style="fill:url(#linearGradient3);stroke:none"
       transform="scale(1.3333333)" /><g
       id="g3"
       transform="matrix(0.06099203,0,0,0.06099203,5.3245265,3.1977215)"
       style="fill:#ffffff"><g
         clip-path="url(#cdb8861e55)"
         id="g2"
         style="fill:#ffffff"><path
           fill="#000000"
           d="m 148.05078,125.20703 8.57813,-9.53125 c 1.10546,-1.20703 2.8125,-1.67578 4.38671,-1.24219 38.10547,10.29297 60.10157,-22.949215 52.46875,-49.796871 -0.52734,-1.855469 -2.85546,-2.476563 -4.21875,-1.113281 L 187.42187,85.40625 c -1.67578,1.675781 -4.39062,1.675781 -6.09765,0 L 163.46484,67.480469 c -1.67578,-1.675781 -1.67578,-4.394531 0,-6.105469 l 22.19532,-22.234375 c 1.26562,-1.269531 0.84375,-3.449219 -0.82032,-4.125 -23.39453,-9.515625 -61.6875,12.246094 -50.76172,52.4375 0.4336,1.609375 0,3.289063 -1.24218,4.394531 -0.40235,0.371094 -4.28907,3.894532 -10.25391,9.296874 L 93.6875,73.871094 96.671875,70.878906 c 4.324215,-4.328125 4.328125,-11.335937 0,-15.667968 l -8.28125,-8.296876 c -1.710937,-1.714843 -1.726563,-4.492187 -0.01172,-6.214843 8.175782,-8.1875 18.679685,-15.792969 31.214845,-22.597657 1.92188,-1.042968 2.87891,-3.167968 2.38281,-5.285156 -0.5039,-2.125 -2.3164,-3.601562 -4.51562,-3.671875 C 99.210938,8.558594 80.394531,14.984375 63.171875,30.445312 L 29.402344,60.746094 c -1.441406,1.289062 -1.488282,3.519531 -0.136719,4.875 l 5.792969,5.804687 c 1.519531,1.519531 1.527344,3.984375 0,5.511719 -1.523438,1.519531 -3.984375,1.515625 -5.5,0 l -5.796875,-5.804688 c -1.308594,-1.3125 -3.429688,-1.3125 -4.738281,0 L 6.21875,83.957031 c -3.082031,3.097657 -3.082031,8.128907 0,11.222657 l 27.496094,27.535152 c 1.496094,1.5 3.488281,2.32813 5.601562,2.32813 2.121094,0 4.109375,-0.82813 5.601563,-2.32813 l 12.128906,-12.14843 c 0.628906,-0.62891 0.984375,-1.48047 0.984375,-2.3711 0,-0.89062 -0.355469,-1.74218 -0.984375,-2.37109 L 50.78125,99.546875 c -1.484375,-1.484375 -1.484375,-3.890625 0,-5.378906 1.480469,-1.484375 3.890625,-1.480469 5.371094,0 l 6.265625,6.277341 c 1.257812,1.25782 3.480469,1.25782 4.738281,0 l 0.773438,-0.773435 25.9375,27.550785 c -24.425782,22.18359 -51.332032,46.58203 -51.332032,46.58203 -9.75,8.82812 -10.121094,24.0664 -0.804687,33.39453 9.269531,9.28515 24.515625,8.98047 33.375,-0.8711 l 45.535161,-50.64453 46.84374,49.77344 c 8.8086,9.23438 23.30469,9.41016 32.30079,0.46875 8.82031,-8.90234 8.83984,-23.41797 -0.4336,-32.28906 z m -82.136718,70.89063 c -3.683593,3.66015 -9.683593,3.69531 -13.367187,0.0352 -3.71875,-3.72656 -3.6875,-9.73437 0,-13.42578 3.683594,-3.69141 9.648437,-3.69141 13.367187,0.0352 3.652344,3.6914 3.652344,9.66406 0,13.35547 z M 64.785156,93.328125 60.890625,89.421875 c -4.089844,-4.097656 -10.757813,-4.101563 -14.847656,0 -4.097657,4.101563 -4.109375,10.750005 0,14.871095 l 3.898437,3.90234 -9.765625,9.77735 c -0.609375,0.61718 -1.09375,0.6289 -1.722656,-0.004 L 10.957031,90.4375 c -0.472656,-0.480469 -0.472656,-1.257812 0,-1.734375 L 21.394531,78.25 l 3.425781,3.433594 c 4.125,4.132812 10.84375,4.132812 14.976563,0 4.140625,-4.144532 4.144531,-10.855469 0,-15.003906 l -3.289063,-3.296876 31.132813,-27.9375 C 79.667969,24.648438 93.734375,17.429688 109.63672,16.058594 99.464844,22.167969 90.746094,28.839844 83.640625,35.953125 c -4.332031,4.335937 -4.324219,11.367187 0.01172,15.707031 l 8.28125,8.300782 c 1.703125,1.703124 1.710937,4.460937 0,6.171874 -0.335938,0.335938 -27.480469,27.53125 -27.148439,27.195313 z M 195.02734,201.16016 c -6.02343,6.10156 -16.3164,6.36328 -22.65234,-0.33594 C 21.019531,39.960938 135.83594,162 72.691406,94.902344 L 88.925781,78.640625 C 112.15625,100.57422 70.902344,61.625 194.72656,178.53906 c 6.53906,6.12891 6.4961,16.48438 0.30078,22.6211 z m 0,0"
           fill-opacity="1"
           fill-rule="nonzero"
           id="path2"
           style="fill:#ffffff" /></g><path
         fill="#000000"
         d="m 94.78125,96.019531 c -1.308594,-1.308593 -3.425781,-1.308593 -4.738281,0 -1.308594,1.3125 -1.308594,3.4375 0,4.746099 l 16.171871,16.19921 c 1.3086,1.3086 3.42969,1.3086 4.73829,0 1.30859,-1.3125 1.30859,-3.43359 0,-4.74609 z m 0,0"
         fill-opacity="1"
         fill-rule="nonzero"
         id="path3-6"
         style="fill:#ffffff" /><path
         fill="#000000"
         d="m 142.96484,144.27734 c -0.008,-0.008 -0.0195,-0.0156 -0.0234,-0.0234 l -0.0703,-0.0664 c -1.30859,-1.3125 -3.42968,-1.31641 -4.73828,-0.008 -1.30859,1.30859 -1.3125,3.43359 -0.008,4.74609 l 0.55078,0.55469 c 1.30078,1.30469 3.42188,1.32031 4.73828,0.008 1.3086,-1.30859 1.31641,-3.43359 0.008,-4.75 z m 0,0"
         fill-opacity="1"
         fill-rule="nonzero"
         id="path4"
         style="fill:#ffffff" /><path
         fill="#000000"
         d="m 126.78906,128.07812 c -1.30859,-1.31249 -3.42968,-1.31249 -4.73828,0 -1.30859,1.3125 -1.30859,3.4336 0,4.7461 l 4.55469,4.5625 c 1.30859,1.3125 3.42969,1.3125 4.73828,0 1.30859,-1.3125 1.30859,-3.4336 0,-4.7461 z m 0,0"
         fill-opacity="1"
         fill-rule="nonzero"
         id="path5"
         style="fill:#ffffff" /><path
         fill="#000000"
         d="m 158.78906,160.13672 c -1.30859,-1.3125 -3.42578,-1.3125 -4.73828,0 -1.30859,1.30859 -1.30859,3.43359 0,4.74609 l 16.17188,16.19531 c 1.30859,1.3125 3.42968,1.3125 4.73828,0 1.30859,-1.3125 1.30859,-3.43359 0,-4.74609 z m 0,0"
         fill-opacity="1"
         fill-rule="nonzero"
         id="path6"
         style="fill:#ffffff" /></g><path
       d="m 4.4361424,20.066145 0.9167302,-2.483506 h 0.3400236 l 0.9067295,2.483506 H 6.2796035 l -0.5217028,-1.49677 q -0.05167,-0.148344 -0.1166748,-0.338357 -0.063338,-0.19168 -0.1616778,-0.501702 h 0.086673 q -0.09834,0.310022 -0.1633446,0.501702 -0.063338,0.190013 -0.1166748,0.338357 l -0.5367038,1.49677 z M 4.9095085,19.36943 v -0.266685 h 1.216751 v 0.266685 z m 1.9334673,1.39343 v -2.456837 h 0.2766859 v 0.260018 h 0.00333 q 0.056671,-0.09834 0.1433433,-0.163345 0.086673,-0.065 0.1933467,-0.09667 0.1066741,-0.03334 0.2200153,-0.03334 0.2300159,0 0.4016945,0.115008 0.1716786,0.115008 0.2666851,0.321689 0.095007,0.205014 0.095007,0.4767 0,0.270019 -0.095007,0.4767 -0.095007,0.205014 -0.2666851,0.321689 -0.1716786,0.115008 -0.4016945,0.115008 -0.1133412,0 -0.2150149,-0.03334 -0.1016737,-0.03167 -0.1866796,-0.09834 -0.085006,-0.06667 -0.1483436,-0.168345 h -0.00333 v 0.9634 z m 0.7933884,-0.918397 q 0.1533439,0 0.2700187,-0.07501 0.1166747,-0.07501 0.183346,-0.221682 0.066671,-0.146677 0.066671,-0.361692 0,-0.216682 -0.066671,-0.363359 -0.066671,-0.146676 -0.183346,-0.221682 -0.1166748,-0.07501 -0.2700187,-0.07501 -0.1633447,0 -0.283353,0.08167 -0.1200083,0.08167 -0.1850128,0.230015 -0.065004,0.148344 -0.065004,0.348358 0,0.198347 0.065004,0.346691 0.065004,0.148343 0.1850128,0.230016 0.1200083,0.08167 0.283353,0.08167 z m 1.1367454,0.918397 v -2.456837 h 0.2766859 v 0.260018 h 0.00333 q 0.056671,-0.09834 0.1433432,-0.163345 0.086673,-0.065 0.1933468,-0.09667 0.106674,-0.03334 0.2200152,-0.03334 0.230016,0 0.4016947,0.115008 0.171678,0.115008 0.266685,0.321689 0.09501,0.205014 0.09501,0.4767 0,0.270019 -0.09501,0.4767 -0.09501,0.205014 -0.266685,0.321689 -0.1716787,0.115008 -0.4016947,0.115008 -0.1133412,0 -0.2150149,-0.03334 -0.1016737,-0.03167 -0.1866796,-0.09834 -0.085006,-0.06667 -0.1483436,-0.168345 h -0.00333 v 0.9634 z M 9.566498,19.844463 q 0.1533439,0 0.2700187,-0.07501 0.1166747,-0.07501 0.1833463,-0.221682 0.06667,-0.146677 0.06667,-0.361692 0,-0.216682 -0.06667,-0.363359 -0.066672,-0.146676 -0.1833463,-0.221682 -0.1166748,-0.07501 -0.2700187,-0.07501 -0.1633447,0 -0.283353,0.08167 -0.1200083,0.08167 -0.1850128,0.230015 -0.065005,0.148344 -0.065005,0.348358 0,0.198347 0.065005,0.346691 0.065005,0.148343 0.1850128,0.230016 0.1200083,0.08167 0.283353,0.08167 z m 1.473435,-2.261824 v 2.483506 h -0.30002 v -2.483506 z m 0.456699,2.483506 v -1.760122 h 0.276686 v 0.360025 h -0.035 q 0.05167,-0.128342 0.13501,-0.215015 0.08501,-0.08834 0.193346,-0.133343 0.108341,-0.045 0.22835,-0.045 0.20668,0 0.350024,0.118342 0.14501,0.116675 0.180012,0.275019 h -0.05834 q 0.03834,-0.108341 0.120008,-0.19668 0.08167,-0.09001 0.200014,-0.143344 0.120008,-0.05334 0.268352,-0.05334 0.161678,0 0.293354,0.07 0.133342,0.07001 0.211681,0.211681 0.08001,0.141677 0.08001,0.358359 v 1.153413 h -0.283353 v -1.153413 q 0,-0.205015 -0.115008,-0.291687 -0.115008,-0.08834 -0.266686,-0.08834 -0.128342,0 -0.221682,0.05334 -0.09334,0.05334 -0.143343,0.146677 -0.05,0.09334 -0.05,0.213348 v 1.120078 H 12.576707 V 18.88273 q 0,-0.158345 -0.106674,-0.253351 -0.105008,-0.09667 -0.265019,-0.09667 -0.110007,0 -0.208348,0.05167 -0.09667,0.05167 -0.156677,0.15501 -0.06,0.101674 -0.06,0.253351 v 1.073408 z m 3.400235,0.02667 q -0.175012,0 -0.313355,-0.06 -0.138343,-0.06 -0.220015,-0.178345 -0.08001,-0.120009 -0.08001,-0.295021 0,-0.151677 0.05834,-0.246684 0.06,-0.09501 0.158344,-0.148343 0.100007,-0.055 0.225016,-0.08334 0.126675,-0.02834 0.258351,-0.045 0.168345,-0.02333 0.265018,-0.035 0.09667,-0.01167 0.136676,-0.03834 0.04167,-0.02667 0.04167,-0.09334 v -0.01667 q 0,-0.09667 -0.04667,-0.170012 -0.045,-0.07501 -0.133342,-0.116675 -0.08667,-0.04334 -0.210015,-0.04334 -0.121675,0 -0.216682,0.04167 -0.09334,0.04 -0.15001,0.110008 -0.055,0.07 -0.06167,0.158344 h -0.288353 q 0.0083,-0.161678 0.100007,-0.286686 0.09167,-0.126676 0.250017,-0.200014 0.158344,-0.07334 0.366692,-0.07334 0.153344,0 0.276686,0.04167 0.125009,0.04167 0.211681,0.118341 0.08834,0.07667 0.13501,0.183346 0.04667,0.106674 0.04667,0.236684 v 1.213417 h -0.280019 v -0.250017 h -0.0067 q -0.03167,0.06334 -0.09334,0.128342 -0.06167,0.06334 -0.166678,0.106674 -0.103341,0.04167 -0.263352,0.04167 z m 0.04,-0.25335 q 0.173345,0 0.281686,-0.06167 0.108341,-0.06334 0.158345,-0.163345 0.05,-0.100007 0.05,-0.215015 v -0.220015 q -0.01667,0.015 -0.06167,0.02833 -0.04334,0.01333 -0.108341,0.02667 -0.06334,0.01167 -0.138343,0.02333 -0.07334,0.01167 -0.148343,0.02167 -0.101674,0.01333 -0.193347,0.04667 -0.09001,0.03167 -0.146677,0.09167 -0.05667,0.05834 -0.05667,0.158344 0,0.08167 0.04334,0.141676 0.045,0.05834 0.126675,0.09001 0.08167,0.03167 0.193347,0.03167 z m 1.926801,0.946732 q -0.198347,0 -0.358359,-0.06167 -0.158344,-0.06 -0.260018,-0.180013 -0.100007,-0.118341 -0.121675,-0.291686 h 0.29002 q 0.025,0.09501 0.08834,0.156677 0.06334,0.06334 0.155011,0.09501 0.09334,0.03167 0.206681,0.03167 0.230016,0 0.361691,-0.123342 0.131676,-0.121675 0.131676,-0.346691 V 19.79946 h -0.0017 q -0.065,0.101674 -0.15001,0.168345 -0.08501,0.06667 -0.18668,0.09834 -0.101673,0.03334 -0.218348,0.03334 -0.228349,0 -0.401695,-0.115008 -0.171678,-0.116675 -0.266685,-0.321689 -0.09501,-0.206681 -0.09501,-0.4767 0,-0.271686 0.09501,-0.4767 0.09501,-0.206681 0.266685,-0.321689 0.173346,-0.115008 0.401695,-0.115008 0.115008,0 0.218348,0.03167 0.105008,0.03167 0.19168,0.100007 0.08834,0.06834 0.148344,0.176679 h 0.0017 v -0.275019 h 0.276686 v 1.760122 q 0,0.260018 -0.108341,0.418362 -0.106674,0.158345 -0.283353,0.230016 -0.176679,0.07167 -0.381693,0.07167 z m -0.02,-0.941732 q 0.163345,0 0.283353,-0.08167 0.120008,-0.08167 0.185013,-0.230016 0.065,-0.148344 0.065,-0.346691 0,-0.200014 -0.065,-0.348358 -0.06501,-0.148343 -0.185013,-0.230015 -0.120008,-0.08167 -0.283353,-0.08167 -0.151677,0 -0.270019,0.07501 -0.116674,0.07501 -0.183346,0.221682 -0.06667,0.146677 -0.06667,0.363359 0,0.215015 0.06667,0.361692 0.06667,0.146677 0.183346,0.221682 0.118342,0.07501 0.270019,0.07501 z m 1.940135,0.261685 q -0.258352,0 -0.441698,-0.118342 -0.181679,-0.118341 -0.278352,-0.325022 -0.09667,-0.208348 -0.09667,-0.473366 0,-0.268352 0.101674,-0.4767 0.101674,-0.208348 0.281686,-0.32669 0.180013,-0.120008 0.413362,-0.120008 0.183346,0 0.330023,0.06667 0.148344,0.06667 0.253351,0.190014 0.105007,0.123342 0.160011,0.293353 0.05667,0.168345 0.05667,0.37336 v 0.07834 h -1.446767 v -0.24335 h 1.288422 l -0.121675,0.08501 q 0,-0.180013 -0.065,-0.311688 -0.06334,-0.133343 -0.180013,-0.205015 -0.116674,-0.07334 -0.275019,-0.07334 -0.156677,0 -0.273352,0.07334 -0.115008,0.07167 -0.180012,0.205015 -0.06334,0.131675 -0.06334,0.311688 v 0.120008 q 0,0.18168 0.06167,0.321689 0.06334,0.14001 0.183346,0.220015 0.120008,0.07834 0.291687,0.07834 0.125008,0 0.220015,-0.03834 0.09501,-0.04 0.156677,-0.110007 0.06334,-0.07 0.09001,-0.161678 h 0.283353 q -0.03334,0.168345 -0.138343,0.296687 -0.105007,0.126675 -0.263352,0.198347 -0.156677,0.07167 -0.348357,0.07167 z"
       id="text3"
       style="font-size:3.41357px;font-family:'Adwaita Sans';-inkscape-font-specification:'Adwaita Sans';fill:#66ff00;stroke-width:0.426696"
       aria-label="AppImage" /></g></svg>
